<svg xmlns="http://www.w3.org/2000/svg" width="14" height="8" viewBox="75 32 14 8"><path d="M85.337 32.928A7.055 7.055 0 0 0 82 32c-3.534 0-6.456 3.342-6.932 3.916A4.37 4.37 0 0 0 75 36a4.012 4.012 0 0 0 .056.07c.29.35 1.673 1.955 3.607 3.002A7.054 7.054 0 0 0 82 40c3.534 0 6.456-3.342 6.932-3.917A4.37 4.37 0 0 0 89 36a4.012 4.012 0 0 0-.056-.07c-.29-.35-1.673-1.955-3.607-3.002ZM87.6 36a3.322 3.322 0 0 0-.045-.058c-.35-.442-2.704-3.275-5.555-3.275a5.415 5.415 0 0 0-2.58.723C77.626 34.37 76.4 36 76.4 36a3.324 3.324 0 0 0 .045.058c.225.284 1.282 1.561 2.768 2.434a5.554 5.554 0 0 0 2.787.842c2.827 0 5.165-2.786 5.546-3.265A3.617 3.617 0 0 0 87.6 36Zm-2.489 0A3.156 3.156 0 0 0 82 32.8a3.041 3.041 0 0 0-1.861.636A3.226 3.226 0 0 0 78.889 36a3.348 3.348 0 0 0 0 .01A3.156 3.156 0 0 0 82 39.2a3.04 3.04 0 0 0 1.861-.636A3.227 3.227 0 0 0 85.111 36Z" fill="rgba(255, 255, 255, 1)" fill-rule="evenodd" data-name="eye"/></svg>