<svg xmlns="http://www.w3.org/2000/svg" width="10.093" height="13.073" viewBox="278 28 10.093 13.073"><path d="M281.42 34.5a14.145 14.145 0 0 0 .685-.02v-5.667a.917.917 0 0 1 .126-.47.658.658 0 0 1 .558-.343.663.663 0 0 1 .57.362.92.92 0 0 1 .114.45v5.61a3.95 3.95 0 0 1 .684.048v-4.032a.916.916 0 0 1 .126-.47.658.658 0 0 1 .558-.343.662.662 0 0 1 .567.358.92.92 0 0 1 .117.455v4.898a5.613 5.613 0 0 1 .017-.016c.694-.641 2.123-1.718 2.458-1.32.4.476-.6 2.524-1 3l-3 4a.203.203 0 0 1-.078.059c-.116.048-.272-.031-.446-.184a2.885 2.885 0 0 1-.214-.21 2.86 2.86 0 0 1-.848.312 2.051 2.051 0 0 1-.31.023 2.368 2.368 0 0 1-.685-.107c-1.453-.44-2.919-2.167-3.315-3.892a3.925 3.925 0 0 1-.104-.848.92.92 0 0 1 0-.028 3.481 3.481 0 0 1 0-.066V31.25a.915.915 0 0 1 .129-.474.658.658 0 0 1 .555-.338.662.662 0 0 1 .568.358.919.919 0 0 1 .116.454v3.178a3.66 3.66 0 0 1 .226-.006c.132 0 .27.005.414.012a35.875 35.875 0 0 1 .044.003v-4.812a.915.915 0 0 1 .13-.474.658.658 0 0 1 .555-.338.663.663 0 0 1 .57.362.92.92 0 0 1 .114.45V34.5Z" fill="rgba(255, 255, 255, 1)" fill-rule="evenodd" data-name="palm"/></svg>