<svg xmlns="http://www.w3.org/2000/svg" width="85.996" height="374.995" viewBox="0 11 85.996 374.995"><g data-name="pattern"><path d="m76.375 56.774-.519-.52-14.25 14.263-3.745-3.905-.527.507 3.755 3.915-15.305 15.32.518.518 15.295-15.308 4.506 4.698 8.769 9.142.527-.506-13.285-13.851 14.26-14.273ZM27.97 67.046l-.529-.509-3.749 3.91-14.066-14.08-.516.518 14.076 14.089-4.546 4.74-8.802 9.176.53.509 13.337-13.906 15.365 15.38.517-.518-15.376-15.39 3.76-3.919ZM9.375 49.962l-.517-.516L24.11 34.243 11.05 21.79l.503-.524 8.375 7.985 4.697 4.479L39.56 18.843l.517.515-14.923 14.876 3.15 3.003-.504.524-3.161-3.014L9.375 49.962Zm48.24-12.382-.506-.526 2.896-2.761-14.732-14.686.515-.514L60.53 33.791l13.391-12.768.505.527-13.379 12.756.033.033 15.294 15.245-.515.514-15.294-15.246-.044-.044-2.907 2.772Zm-14.873-3.178c10.093 0 18.275 8.156 18.275 18.217 0 10.06-8.182 18.216-18.275 18.216a18.246 18.246 0 0 1-18.274-18.216 18.246 18.246 0 0 1 18.274-18.217ZM81.484 52.62a2.19 2.19 0 0 0-2.192-2.186 2.19 2.19 0 0 0-2.193 2.186 2.19 2.19 0 0 0 2.193 2.186 2.19 2.19 0 0 0 2.192-2.186ZM42.742 86.865a2.19 2.19 0 0 1 2.193 2.186 2.19 2.19 0 0 1-2.193 2.186 2.19 2.19 0 0 1-2.193-2.186 2.19 2.19 0 0 1 2.193-2.186Zm0-72.865a2.19 2.19 0 0 1 2.193 2.186 2.19 2.19 0 0 1-2.193 2.186 2.19 2.19 0 0 1-2.193-2.186A2.19 2.19 0 0 1 42.742 14ZM8.386 52.619a2.19 2.19 0 0 0-2.193-2.186A2.19 2.19 0 0 0 4 52.619a2.19 2.19 0 0 0 2.193 2.186 2.19 2.19 0 0 0 2.193-2.186Z" stroke-miterlimit="100" stroke="rgba(187, 156, 102, 1)" fill="transparent" data-name="Shape 83"/><path d="m80.288 83.342 5.708 5.827-5.708 5.826-5.707-5.826 5.707-5.827Zm-73.375 0 5.707 5.827-5.707 5.826-5.707-5.826 5.707-5.827Zm0 144 5.707 5.826-5.707 5.827-5.707-5.827 5.707-5.826Zm73.375 0 5.708 5.826-5.708 5.827-5.707-5.827 5.707-5.826Zm-73.375 147 5.707 5.826-5.707 5.827-5.707-5.827 5.707-5.827Zm73.375 0 5.708 5.826-5.708 5.827-5.707-5.827 5.707-5.827ZM6.686 11l5.685 5.667-5.685 5.668L1 16.667 6.686 11Zm73.098 0 5.686 5.667-5.686 5.668-5.685-5.668L79.784 11ZM6.686 155l5.685 5.668-5.685 5.667L1 160.668 6.686 155Zm73.098 0 5.686 5.668-5.686 5.667-5.685-5.667L79.784 155ZM6.686 302l5.685 5.668-5.685 5.667L1 307.668 6.686 302Zm73.098 0 5.686 5.668-5.686 5.667-5.685-5.667L79.784 302Z" stroke-miterlimit="100" stroke="rgba(187, 156, 102, 1)" fill="transparent" data-name="Shape 84"/><path d="m76.617 346.888-.522-.519-14.36 14.245-3.775-3.9-.531.506 3.784 3.91-15.424 15.301.522.518 15.414-15.29 13.378 13.824.531-.506-13.388-13.834 14.371-14.255Zm-48.78 10.26-.533-.509-3.778 3.904-14.175-14.061-.52.517 14.185 14.071-13.452 13.9.534.508 13.441-13.889 15.485 15.36.52-.516-15.495-15.371 3.789-3.915Zm48.803-83.216-.521-.519-14.324 14.251-3.764-3.901-.53.506 3.775 3.912-15.385 15.306.521.519 15.114-15.037.26-.259 13.343 13.83.53-.507-13.353-13.84 14.334-14.261Zm-48.654 10.264-.532-.508-3.768 3.905-14.139-14.067-.52.517 14.15 14.078L9.76 302.026l.531.508 13.407-13.895 15.445 15.367.52-.517-15.456-15.377 3.779-3.916Zm48.677-83.25-.52-.518-14.287 14.256-3.755-3.903-.528.507 3.765 3.913-15.345 15.313.52.519 15.075-15.043.26-.26 13.308 13.835.529-.506-13.32-13.845 14.298-14.268Zm-48.53 10.268-.53-.508-3.758 3.907L9.742 200.54l-.518.517 14.113 14.084-4.558 4.738-8.825 9.173.53.508 13.373-13.9 15.405 15.373.518-.517-15.415-15.384 3.769-3.918Zm48.553-83.283-.52-.52-14.25 14.263-3.744-3.904-.527.506 3.755 3.915-15.306 15.32.519.518 15.295-15.308 4.506 4.698 8.768 9.142.528-.506-13.285-13.851 14.26-14.273ZM28.28 138.203l-.529-.508-3.749 3.908-14.066-14.079-.517.518 14.077 14.089-13.348 13.917.529.508 13.338-13.906 15.365 15.38.517-.518-15.376-15.39 3.76-3.92ZM9.098 340.084l-.52-.515 15.37-15.184-13.162-12.437.507-.524 13.173 12.448 15.05-14.868.522.514-15.04 14.857 3.175 3-.507.524-3.186-3.01-15.382 15.195Zm48.614-12.366-.51-.526 2.919-2.758-14.847-14.667.519-.513 14.858 14.679 13.495-12.752.509.526-8.472 8.005-5.01 4.736 15.444 15.259-.518.513-15.457-15.27-2.93 2.768ZM9.295 267.125l-.52-.514 15.33-15.19-13.127-12.443.506-.525 13.14 12.454 15.011-14.874.52.514-15 14.864 3.166 3-.506.525-3.178-3.012-15.342 15.201Zm.196-72.988-.519-.515 15.291-15.197-13.093-12.448.504-.524 13.106 12.459 14.973-14.88.518.514-14.961 14.87 3.158 3.002-.505.524-3.17-3.013-15.302 15.208Zm48.292 60.617-.508-.526 2.91-2.758-14.808-14.674.518-.513 14.82 14.685 13.46-12.757.508.526-13.448 12.746 15.405 15.266-.517.512-15.417-15.276-2.923 2.77ZM9.686 121.118l-.517-.515L24.421 105.4l-13.06-12.453.503-.524 8.375 7.985 4.697 4.479L39.871 90l.517.515-14.924 14.876 3.15 3.003-.503.525-3.162-3.015-15.263 15.214Zm48.168 60.643-.506-.527 2.903-2.76-14.77-14.68.516-.512 14.782 14.69 4.997-4.75 8.428-8.011.506.526-8.428 8.012-4.985 4.739 15.366 15.272-.516.513-15.378-15.283-2.915 2.77Zm.071-73.024-.505-.527 2.896-2.76-14.733-14.686.515-.514 14.744 14.698 4.984-4.753 8.407-8.015.505.527-8.406 8.015-4.973 4.741.033.033 15.293 15.245-.514.514-15.294-15.246-.044-.044-2.908 2.772Zm3.215 234a18.306 18.306 0 0 0-18.416-18.193c-10.171 0-18.417 8.145-18.417 18.194a18.306 18.306 0 0 0 18.417 18.194 18.306 18.306 0 0 0 18.416-18.194Zm.063-72.957a18.286 18.286 0 0 0-18.37-18.201 18.286 18.286 0 0 0-18.368 18.201 18.286 18.286 0 0 0 18.369 18.202 18.286 18.286 0 0 0 18.369-18.202Zm.062-72.987a18.266 18.266 0 0 0-18.321-18.209 18.266 18.266 0 0 0-18.322 18.209 18.266 18.266 0 0 0 18.322 18.209 18.266 18.266 0 0 0 18.321-18.21Zm-18.212-91.234c10.093 0 18.275 8.156 18.275 18.217 0 10.06-8.182 18.216-18.275 18.216a18.246 18.246 0 0 1-18.275-18.216 18.246 18.246 0 0 1 18.275-18.217ZM5.752 373.306l5.751 5.82-5.751 5.82L0 379.125l5.752-5.82Zm73.944 0 5.752 5.82-5.752 5.82-5.751-5.82 5.751-5.82Zm.015-72.945 5.737 5.822-5.737 5.822-5.737-5.822 5.737-5.822Zm-73.754 0 5.736 5.822-5.736 5.822-5.737-5.822 5.737-5.822Zm.204-72.975 5.722 5.825-5.722 5.824-5.722-5.824 5.722-5.825Zm73.565 0 5.722 5.825-5.722 5.824-5.722-5.824 5.722-5.825Zm-73.36-73.005 5.707 5.827-5.708 5.827-5.707-5.827 5.707-5.827Zm73.375 0 5.707 5.827-5.707 5.827-5.708-5.827 5.708-5.827Zm-.184 186.173c1.22 0 2.21.978 2.21 2.184 0 1.206-.99 2.183-2.21 2.183a2.197 2.197 0 0 1-2.21-2.183 2.197 2.197 0 0 1 2.21-2.184Zm-36.833 36.388c1.22 0 2.21.978 2.21 2.183 0 1.206-.99 2.184-2.21 2.184a2.197 2.197 0 0 1-2.21-2.184 2.197 2.197 0 0 1 2.21-2.183ZM8.101 342.738a2.197 2.197 0 0 0-2.21-2.184c-1.22 0-2.21.978-2.21 2.184 0 1.206.99 2.183 2.21 2.183a2.197 2.197 0 0 0 2.21-2.183Zm-2.005-75.142c1.217 0 2.204.978 2.204 2.184a2.194 2.194 0 0 1-2.204 2.184 2.194 2.194 0 0 1-2.205-2.184c0-1.206.987-2.184 2.205-2.184Zm73.476 0c1.217 0 2.204.978 2.204 2.184a2.194 2.194 0 0 1-2.204 2.184 2.194 2.194 0 0 1-2.204-2.184c0-1.206.987-2.184 2.204-2.184ZM42.834 304c1.217 0 2.204.978 2.204 2.184a2.194 2.194 0 0 1-2.204 2.184 2.194 2.194 0 0 1-2.204-2.184c0-1.206.987-2.184 2.204-2.184Zm.11-72.973c1.214 0 2.198.978 2.198 2.185a2.192 2.192 0 0 1-2.198 2.185 2.192 2.192 0 0 1-2.199-2.185c0-1.207.984-2.185 2.199-2.185Zm38.842-34.233a2.192 2.192 0 0 0-2.199-2.185 2.192 2.192 0 0 0-2.198 2.185c0 1.207.984 2.185 2.198 2.185a2.192 2.192 0 0 0 2.199-2.185Zm-73.287 0a2.192 2.192 0 0 0-2.199-2.185 2.192 2.192 0 0 0-2.199 2.185c0 1.207.985 2.185 2.199 2.185a2.192 2.192 0 0 0 2.199-2.185Zm73.296-73.017a2.19 2.19 0 0 0-2.193-2.186 2.19 2.19 0 0 0-2.193 2.186 2.19 2.19 0 0 0 2.193 2.186 2.19 2.19 0 0 0 2.193-2.186Zm-73.098 0a2.19 2.19 0 0 0-2.193-2.186 2.19 2.19 0 0 0-2.193 2.186 2.19 2.19 0 0 0 2.193 2.186 2.19 2.19 0 0 0 2.193-2.186Zm36.549 36.432a2.19 2.19 0 0 0-2.193-2.186 2.19 2.19 0 0 0-2.193 2.186 2.19 2.19 0 0 0 2.193 2.186 2.19 2.19 0 0 0 2.193-2.186Z" stroke-miterlimit="100" stroke="rgba(187, 156, 102, 1)" fill="transparent" data-name="Shape 83"/></g></svg>